<?xml version="1.0" encoding="UTF-8" standalone="no"?>
<!DOCTYPE svg PUBLIC "-//W3C//DTD SVG 1.1//EN" "http://www.w3.org/Graphics/SVG/1.1/DTD/svg11.dtd">
<!-- Created with Vectornator (http://vectornator.io/) -->
<svg height="148.0mm" stroke-miterlimit="10" style="fill-rule:nonzero;clip-rule:evenodd;stroke-linecap:round;stroke-linejoin:round;" version="1.1" viewBox="0 0 595.35 419.58" width="210.0mm" xml:space="preserve" xmlns="http://www.w3.org/2000/svg" xmlns:xlink="http://www.w3.org/1999/xlink">
<defs>
<filter color-interpolation-filters="sRGB" filterUnits="userSpaceOnUse" height="50.4736" id="Filter" width="369.443" x="116.451" y="42.2868">
<feDropShadow dx="-3.67321e-05" dy="10" flood-color="#000000" flood-opacity="0.333" in="SourceGraphic" result="Shadow" stdDeviation="5"/>
</filter>
</defs>
<clipPath id="ArtboardFrame">
<rect height="419.58" width="595.35" x="0" y="0"/>
</clipPath>
<g clip-path="url(#ArtboardFrame)" id="Calque-1">
<path d="M-7.39331-11.9257L637.869-17.9916L624.504 436.775L-21.6393 429.645L-7.39331-11.9257Z" fill="#f8ffa7" fill-rule="nonzero" opacity="1" stroke="none"/>
<g opacity="1">
<path d="M67.1741 184.926C64.8862 187.742 63.2539 190.815 60.1513 198.122C56.495 206.769 54.8845 209.362 51.2417 212.623C47.1143 216.291 45.3617 217.272 31.5455 223.471C24.7228 226.533 22.4027 227.74 19.3141 229.839C16.5735 231.703 13.1092 234.6 11.7681 236.158C9.37241 238.942 7.47778 242.583 6.82155 245.678C6.1028 249.06 6.27328 253.821 7.25791 257.443C8.84044 263.218 11.854 267.148 21.6536 276.316C23.7402 278.261 24.1344 278.702 24.0612 278.946C23.9483 279.354 23.8471 279.419 23.338 279.414C23.1056 279.392 22.8335 279.533 22.7389 279.695C22.6107 279.937 22.7339 280.134 23.418 280.75C23.884 281.152 24.3774 281.555 24.5508 281.63C24.9084 281.822 25.3447 281.508 25.0904 281.224C24.8869 280.996 25.3263 280.271 25.6559 280.283C25.7932 280.288 27.6885 281.841 29.8763 283.721C36.9544 289.848 40.0898 292.134 43.4997 293.689C48.1218 295.795 52.4965 296.409 57.2112 295.593C58.3556 295.387 59.3987 295.247 59.5213 295.265C60.7933 295.38 61.1819 295.34 61.84 295.006C62.399 294.711 62.6202 294.513 62.7437 294.146C62.878 293.821 63.9037 292.801 66.0885 290.82C68.6419 288.509 69.5202 287.62 70.6628 286.137C73.205 282.863 74.5317 280.754 76.0663 277.513C77.16 275.203 80.3698 267.007 81.2469 264.277C82.8377 259.347 84.244 255.606 85.1324 253.838C86.8378 250.52 89.34 248.716 98.1954 244.423C102.821 242.202 106.232 239.839 108.774 237.129C111.392 234.326 112.75 232.163 113.253 230.024C113.687 228.254 112.883 226.644 111.552 226.581C110.674 226.549 109.828 226.999 107.594 228.717C103.827 231.603 100.977 232.9 97.3767 233.359C94.3591 233.757 91.5708 233.105 89.3098 231.469C86.7991 229.673 86.1228 227.463 87.1616 224.41C87.5174 223.323 86.507 224.509 101.963 207.143C107.536 200.875 114.566 192.97 117.585 189.577C122.948 183.548 130.115 175.47 142.598 161.43C170.356 130.237 169.489 131.167 170.073 131.463C170.417 131.641 171.094 131.061 171.014 130.646C170.952 130.369 171.599 129.815 175.976 126.307C178.756 124.1 181.825 121.711 182.786 121.005C185.337 119.106 192.401 114.088 195.36 112.052C198.392 109.979 198.975 109.354 199.783 107.377C200.104 106.578 200.897 104.972 201.507 103.813C202.13 102.64 202.651 101.56 202.663 101.396C202.698 100.93 201.779 101.061 199.405 101.881C198.19 102.303 197.145 102.65 197.118 102.649C197.075 102.661 196.952 102.286 196.821 101.814C196.529 100.745 196.376 100.574 195.66 100.576C194.75 100.597 194.254 100.785 193.421 101.428L192.661 102.032L193.05 102.912C193.375 103.721 193.382 103.817 192.979 104.05C192.277 104.423 192.131 104.349 191.883 103.419C191.59 102.35 191.578 102.336 190.712 102.318C189.776 102.311 189.025 102.6 188.302 103.247C187.771 103.722 187.752 103.79 188.072 104.681L188.415 105.628L187.777 105.866L187.155 106.09L186.926 105.271C186.6 104.105 186.314 103.875 185.302 103.961C184.58 104.045 184.253 104.184 183.574 104.791L182.749 105.53L183.1 106.368C183.3 106.828 183.463 107.219 183.474 107.261C183.485 107.302 183.16 107.414 182.765 107.537L182.045 107.772L181.817 106.953C181.689 106.453 181.432 106.018 181.222 105.873C180.619 105.466 179.443 105.725 178.495 106.446C177.706 107.05 177.66 107.117 177.831 107.604C178.425 109.247 178.452 109.069 177.679 109.275C177.299 109.384 176.962 109.482 176.921 109.467C176.879 109.479 176.756 109.103 176.625 108.631C176.333 107.563 176.32 107.548 175.454 107.53C174.518 107.524 173.767 107.812 173.044 108.459C172.513 108.934 172.507 109.016 172.805 109.824C173.135 110.757 173.115 110.853 172.367 111.086L171.901 111.248L171.619 110.221L171.352 109.18L170.68 109.142C169.681 109.064 168.932 109.325 168.179 109.998C167.53 110.579 167.528 110.607 167.863 111.485C168.059 112 168.206 112.432 168.216 112.473C168.223 112.57 166.929 112.934 166.865 112.863C166.84 112.835 166.68 112.389 166.527 111.862L166.239 110.917L165.567 110.878C164.705 110.806 163.742 111.155 163.034 111.789C162.474 112.29 162.47 112.345 162.815 113.265L163.171 114.226L162.029 114.583C160.378 115.113 160.189 115.436 160.719 116.829C161.477 118.863 161.671 121.275 161.161 122.576C160.754 123.605 158.727 125.881 151.64 133.248C147.746 137.296 140.556 144.755 135.677 149.84C130.785 154.91 122.041 164.016 116.207 170.082C110.388 176.135 101.154 185.732 95.6949 191.385C90.2489 197.054 85.586 201.816 85.3267 201.971C83.7262 202.943 80.2356 203.406 78.7214 202.842C76.9386 202.186 74.9802 199.998 74.4505 198.041C73.9101 196.043 74.6405 192.318 76.2112 189.146C77.1183 187.311 78.3128 185.499 80.2702 183.056C81.0909 182.015 82.0439 180.675 82.3907 180.083C83.1769 178.766 84.0572 177.85 84.7875 177.657C85.083 177.571 85.3805 177.458 85.4395 177.406C85.646 177.221 85.1591 176.172 84.6316 175.672C84.1041 175.172 84.0766 175.171 83.5986 175.675C83.2848 176.008 82.9558 176.174 82.7106 176.138C82.5057 176.116 82.2249 176.189 82.0922 176.307C81.9594 176.426 81.5053 176.423 81.0867 176.312C79.6132 175.942 76.9985 176.849 74.0615 178.761C72.1955 179.971 68.5085 183.271 67.1741 184.926Z" fill="#000000" fill-rule="nonzero" opacity="1" stroke="none"/>
<text fill="#000000" font-family="Rockwell-Regular" font-size="30" opacity="1" stroke="none" text-anchor="start" transform="matrix(1 0 0 1 76.5113 319.59)" x="0" y="0">
<tspan textLength="94.6289" x="0" y="20">Guitar</tspan>
</text>
</g>
<g opacity="1">
<g opacity="1">
<path d="M254.628 226.742C254.628 225.688 255.535 224.833 256.653 224.833C257.772 224.833 258.679 225.688 258.679 226.742C258.679 227.797 257.772 228.651 256.653 228.651C255.535 228.651 254.628 227.797 254.628 226.742Z" fill="#000000" fill-rule="nonzero" opacity="1" stroke="none"/>
<path d="M353.879 177.112C353.879 176.058 354.786 175.203 355.904 175.203C357.023 175.203 357.93 176.058 357.93 177.112C357.93 178.166 357.023 179.021 355.904 179.021C354.786 179.021 353.879 178.166 353.879 177.112Z" fill="#000000" fill-rule="nonzero" opacity="1" stroke="none"/>
<path d="M353.879 226.742C353.879 225.688 354.786 224.833 355.904 224.833C357.023 224.833 357.93 225.688 357.93 226.742C357.93 227.797 357.023 228.651 355.904 228.651C354.786 228.651 353.879 227.797 353.879 226.742Z" fill="#000000" fill-rule="nonzero" opacity="1" stroke="none"/>
<path d="M364.006 169.476L252.602 169.476L252.602 163.75C252.602 162.694 251.697 161.841 250.577 161.841L244.5 161.841C243.38 161.841 242.475 162.694 242.475 163.75C242.475 164.805 243.38 165.659 244.5 165.659L248.551 165.659L248.551 169.476L248.551 175.203L242.475 175.203L242.475 186.656L248.551 186.656L248.551 188.565L242.475 188.565L242.475 200.018L248.551 200.018L248.551 201.927L242.475 201.927L242.475 213.38L248.551 213.38L248.551 234.378L248.551 243.922C248.551 244.978 249.457 245.831 250.577 245.831C251.697 245.831 252.602 244.978 252.602 243.922L252.602 234.378L264.755 234.378L264.755 242.013L317.419 242.013L317.419 234.378L364.006 234.378L364.006 169.476ZM252.602 179.021L256.653 179.021L256.653 182.838L252.602 182.838L252.602 179.021ZM246.526 182.838L246.526 179.021L248.551 179.021L248.551 182.838L246.526 182.838ZM252.602 192.383L256.653 192.383L256.653 196.2L252.602 196.2L252.602 192.383ZM246.526 196.2L246.526 192.383L248.551 192.383L248.551 196.2L246.526 196.2ZM252.602 205.745L256.653 205.745L256.653 209.562L252.602 209.562L252.602 205.745ZM246.526 209.562L246.526 205.745L248.551 205.745L248.551 209.562L246.526 209.562ZM313.368 238.195L311.343 238.195L311.343 236.287L307.291 236.287L307.291 238.195L305.266 238.195L305.266 236.287L301.215 236.287L301.215 238.195L299.189 238.195L299.189 236.287L295.138 236.287L295.138 238.195L293.113 238.195L293.113 236.287L289.062 236.287L289.062 238.195L287.036 238.195L287.036 236.287L282.985 236.287L282.985 238.195L280.96 238.195L280.96 236.287L276.909 236.287L276.909 238.195L274.883 238.195L274.883 236.287L270.832 236.287L270.832 238.195L268.806 238.195L268.806 234.378L313.368 234.378L313.368 238.195ZM359.955 230.56L317.419 230.56L264.755 230.56L252.602 230.56L252.602 213.38L260.704 213.38L260.704 201.927L252.602 201.927L252.602 200.018L260.704 200.018L260.704 188.565L252.602 188.565L252.602 186.656L260.704 186.656L260.704 175.203L252.602 175.203L252.602 173.294L359.955 173.294L359.955 230.56Z" fill="#000000" fill-rule="nonzero" opacity="1" stroke="none"/>
<path d="M345.777 177.112L349.828 177.112L349.828 177.112L349.828 217.198L349.828 217.198L345.777 217.198L345.777 217.198L345.777 177.112L345.777 177.112Z" fill="#000000" fill-rule="nonzero" opacity="1" stroke="none"/>
<path d="M339.7 177.112L343.751 177.112L343.751 177.112L343.751 217.198L343.751 217.198L339.7 217.198L339.7 217.198L339.7 177.112L339.7 177.112Z" fill="#000000" fill-rule="nonzero" opacity="1" stroke="none"/>
<path d="M333.623 177.112L337.674 177.112L337.674 177.112L337.674 217.198L337.674 217.198L333.623 217.198L333.623 217.198L333.623 177.112L333.623 177.112Z" fill="#000000" fill-rule="nonzero" opacity="1" stroke="none"/>
<path d="M327.547 177.112L331.598 177.112L331.598 177.112L331.598 217.198L331.598 217.198L327.547 217.198L327.547 217.198L327.547 177.112L327.547 177.112Z" fill="#000000" fill-rule="nonzero" opacity="1" stroke="none"/>
<path d="M301.215 200.018L305.266 200.018L305.266 196.2L307.291 196.2L307.291 200.018L311.343 200.018L311.343 196.2L313.368 196.2L313.368 200.018L317.419 200.018L317.419 196.2L321.47 196.2L321.47 180.929L317.419 180.929L317.419 177.112L313.368 177.112L313.368 180.929L311.343 180.929L311.343 177.112L307.291 177.112L307.291 180.929L305.266 180.929L305.266 177.112L301.215 177.112L301.215 180.929L297.164 180.929L297.164 196.2L301.215 196.2L301.215 200.018ZM301.215 184.747L317.419 184.747L317.419 192.383L301.215 192.383L301.215 184.747Z" fill="#000000" fill-rule="nonzero" opacity="1" stroke="none"/>
<path d="M270.832 200.018L274.883 200.018L274.883 196.2L276.909 196.2L276.909 200.018L280.96 200.018L280.96 196.2L282.985 196.2L282.985 200.018L287.036 200.018L287.036 196.2L291.087 196.2L291.087 180.929L287.036 180.929L287.036 177.112L282.985 177.112L282.985 180.929L280.96 180.929L280.96 177.112L276.909 177.112L276.909 180.929L274.883 180.929L274.883 177.112L270.832 177.112L270.832 180.929L266.781 180.929L266.781 196.2L270.832 196.2L270.832 200.018ZM270.832 184.747L287.036 184.747L287.036 192.383L270.832 192.383L270.832 184.747Z" fill="#000000" fill-rule="nonzero" opacity="1" stroke="none"/>
<path d="M282.985 203.836C282.985 202.782 283.892 201.927 285.011 201.927C286.129 201.927 287.036 202.782 287.036 203.836C287.036 204.89 286.129 205.745 285.011 205.745C283.892 205.745 282.985 204.89 282.985 203.836Z" fill="#000000" fill-rule="nonzero" opacity="1" stroke="none"/>
<path d="M254.628 221.016C254.628 219.961 255.535 219.107 256.653 219.107C257.772 219.107 258.679 219.961 258.679 221.016C258.679 222.07 257.772 222.925 256.653 222.925C255.535 222.925 254.628 222.07 254.628 221.016Z" fill="#000000" fill-rule="nonzero" opacity="1" stroke="none"/>
<path d="M276.909 203.836C276.909 202.782 277.815 201.927 278.934 201.927C280.053 201.927 280.96 202.782 280.96 203.836C280.96 204.89 280.053 205.745 278.934 205.745C277.815 205.745 276.909 204.89 276.909 203.836Z" fill="#000000" fill-rule="nonzero" opacity="1" stroke="none"/>
<path d="M270.832 203.836C270.832 202.782 271.739 201.927 272.857 201.927C273.976 201.927 274.883 202.782 274.883 203.836C274.883 204.89 273.976 205.745 272.857 205.745C271.739 205.745 270.832 204.89 270.832 203.836Z" fill="#000000" fill-rule="nonzero" opacity="1" stroke="none"/>
<path d="M268.806 217.198C267.686 217.198 266.781 218.051 266.781 219.107C266.781 220.162 267.686 221.016 268.806 221.016L270.832 221.016L270.832 224.833L287.036 224.833L287.036 221.016L289.062 221.016C290.182 221.016 291.087 220.162 291.087 219.107C291.087 218.051 290.182 217.198 289.062 217.198L287.036 217.198L287.036 215.289L289.062 215.289C290.182 215.289 291.087 214.436 291.087 213.38C291.087 212.325 290.182 211.471 289.062 211.471L287.036 211.471L287.036 207.654L270.832 207.654L270.832 211.471L268.806 211.471C267.686 211.471 266.781 212.325 266.781 213.38C266.781 214.436 267.686 215.289 268.806 215.289L270.832 215.289L270.832 217.198L268.806 217.198ZM274.883 211.471L282.985 211.471L282.985 221.016L274.883 221.016L274.883 211.471Z" fill="#000000" fill-rule="nonzero" opacity="1" stroke="none"/>
<path d="M313.368 203.836C313.368 202.782 314.275 201.927 315.394 201.927C316.512 201.927 317.419 202.782 317.419 203.836C317.419 204.89 316.512 205.745 315.394 205.745C314.275 205.745 313.368 204.89 313.368 203.836Z" fill="#000000" fill-rule="nonzero" opacity="1" stroke="none"/>
<path d="M307.291 203.836C307.291 202.782 308.198 201.927 309.317 201.927C310.436 201.927 311.343 202.782 311.343 203.836C311.343 204.89 310.436 205.745 309.317 205.745C308.198 205.745 307.291 204.89 307.291 203.836Z" fill="#000000" fill-rule="nonzero" opacity="1" stroke="none"/>
<path d="M327.547 222.925C327.547 221.87 328.454 221.016 329.572 221.016C330.691 221.016 331.598 221.87 331.598 222.925C331.598 223.979 330.691 224.833 329.572 224.833C328.454 224.833 327.547 223.979 327.547 222.925Z" fill="#000000" fill-rule="nonzero" opacity="1" stroke="none"/>
<path d="M333.623 222.925C333.623 221.87 334.53 221.016 335.649 221.016C336.768 221.016 337.674 221.87 337.674 222.925C337.674 223.979 336.768 224.833 335.649 224.833C334.53 224.833 333.623 223.979 333.623 222.925Z" fill="#000000" fill-rule="nonzero" opacity="1" stroke="none"/>
<path d="M339.7 222.925C339.7 221.87 340.607 221.016 341.725 221.016C342.844 221.016 343.751 221.87 343.751 222.925C343.751 223.979 342.844 224.833 341.725 224.833C340.607 224.833 339.7 223.979 339.7 222.925Z" fill="#000000" fill-rule="nonzero" opacity="1" stroke="none"/>
<path d="M345.777 222.925C345.777 221.87 346.683 221.016 347.802 221.016C348.921 221.016 349.828 221.87 349.828 222.925C349.828 223.979 348.921 224.833 347.802 224.833C346.683 224.833 345.777 223.979 345.777 222.925Z" fill="#000000" fill-rule="nonzero" opacity="1" stroke="none"/>
<path d="M301.215 203.836C301.215 202.782 302.122 201.927 303.24 201.927C304.359 201.927 305.266 202.782 305.266 203.836C305.266 204.89 304.359 205.745 303.24 205.745C302.122 205.745 301.215 204.89 301.215 203.836Z" fill="#000000" fill-rule="nonzero" opacity="1" stroke="none"/>
<path d="M299.189 217.198C298.069 217.198 297.164 218.051 297.164 219.107C297.164 220.162 298.069 221.016 299.189 221.016L301.215 221.016L301.215 224.833L317.419 224.833L317.419 221.016L319.445 221.016C320.565 221.016 321.47 220.162 321.47 219.107C321.47 218.051 320.565 217.198 319.445 217.198L317.419 217.198L317.419 215.289L319.445 215.289C320.565 215.289 321.47 214.436 321.47 213.38C321.47 212.325 320.565 211.471 319.445 211.471L317.419 211.471L317.419 207.654L301.215 207.654L301.215 211.471L299.189 211.471C298.069 211.471 297.164 212.325 297.164 213.38C297.164 214.436 298.069 215.289 299.189 215.289L301.215 215.289L301.215 217.198L299.189 217.198ZM305.266 211.471L313.368 211.471L313.368 221.016L305.266 221.016L305.266 211.471Z" fill="#000000" fill-rule="nonzero" opacity="1" stroke="none"/>
</g>
<text fill="#000000" font-family="Rockwell-Regular" font-size="30" opacity="1" stroke="none" text-anchor="start" transform="matrix(1 0 0 1 229.414 300.715)" x="0" y="0">
<tspan textLength="144.653" x="0" y="20">Carte son</tspan>
</text>
</g>
<g opacity="1">
<path d="M523.285 255.656L484.42 255.656M472.74 236.223C465.499 236.223 461.873 236.223 459.104 234.812C456.667 233.571 454.686 231.583 453.444 229.146C452.66 227.608 452.312 225.807 452.157 223.268M472.74 236.223L534.964 236.223M472.74 236.223L462.394 236.223C458.766 236.223 456.954 236.221 455.568 235.515C454.349 234.894 453.359 233.91 452.738 232.692C452.032 231.306 452.032 229.487 452.032 225.859L452.032 223.268L452.157 223.268M452.157 223.268C452.032 221.234 452.032 218.724 452.032 215.497L452.032 172.745C452.032 165.49 452.032 161.859 453.444 159.088C454.686 156.65 456.667 154.67 459.104 153.428C461.876 152.016 465.506 152.016 472.761 152.016L534.945 152.016C542.201 152.016 545.824 152.016 548.595 153.428C551.032 154.67 553.019 156.65 554.261 159.088C555.672 161.857 555.672 165.483 555.672 172.724L555.672 215.515C555.672 218.734 555.672 221.237 555.548 223.268M452.157 223.268L555.548 223.268M555.548 223.268C555.393 225.807 555.045 227.608 554.261 229.146C553.019 231.583 551.032 233.571 548.595 234.812C545.826 236.223 542.205 236.223 534.964 236.223M555.548 223.268L555.672 223.268L555.672 225.859C555.672 229.487 555.669 231.306 554.963 232.692C554.343 233.91 553.355 234.894 552.136 235.515C550.751 236.221 548.933 236.223 545.305 236.223L534.964 236.223" fill="none" opacity="1" stroke="#000000" stroke-linecap="round" stroke-linejoin="round" stroke-width="12.955"/>
<text fill="#000000" font-family="Rockwell-Regular" font-size="30" opacity="1" stroke="none" text-anchor="start" transform="matrix(1 0 0 1 420.543 300.715)" x="0" y="0">
<tspan textLength="163.755" x="0" y="20">Ordinateur</tspan>
</text>
</g>
<path d="M128.507 244.916" fill="none" opacity="1" stroke="#000000" stroke-linecap="butt" stroke-linejoin="round" stroke-width="12.955"/>
<path d="M53.5752 273.37C53.3699 277.446 51.8837 282.736 54.3457 286.253C59.2258 293.224 80.1477 292.648 87.8286 292.492C90.7016 292.433 93.8029 292.428 96.623 291.732C102.487 290.285 108.003 286.575 113.06 283.456C126.681 275.056 135.37 262.433 145.835 250.738C148.225 248.067 151.158 246.023 153.739 243.556C159.39 238.153 165.072 231.568 172.814 229.063C177.114 227.672 181.703 226.411 186.166 225.699C189.553 225.158 192.989 224.846 196.416 224.692C199.392 224.559 202.233 224.338 205.189 223.916C212.512 222.871 220.613 222.816 225.514 216.833C226.226 215.964 227.395 214.686 227.395 213.465C227.395 213.106 227.343 214.182 227.335 214.54C227.323 215.1 227.328 215.659 227.319 216.219C227.273 219.02 227.248 218.07 227.214 221.582C227.149 228.441 227.195 235.301 227.195 242.16C227.195 243.106 226.45 249.244 226.589 248.572" fill="none" opacity="1" stroke="#000000" stroke-linecap="round" stroke-linejoin="round" stroke-width="7.95496"/>
<path d="M200.497 205.071C206.393 207.072 212.538 208.471 218.571 210.07C220.381 210.55 222.157 211.446 223.97 211.809C224.459 211.907 226.537 212.628 226 212.596" fill="none" opacity="1" stroke="#000000" stroke-linecap="round" stroke-linejoin="round" stroke-width="7.95496"/>
<path d="M372.126 202.033C380.685 204.242 389.705 203.918 398.512 204.665C403.413 205.082 408.268 204.56 413.156 204.358C417.304 204.187 421.455 204.196 425.605 204.087C426.723 204.057 431.966 203.288 432.066 203.006C432.12 202.854 428.109 199.881 428.065 199.845C423.544 196.072 418.596 193.148 413.844 189.739" fill="none" opacity="1" stroke="#000000" stroke-linecap="round" stroke-linejoin="round" stroke-width="7.95496"/>
<path d="M431.773 202.066C430.98 203.908 428.863 204.902 427.577 206.426C425.05 209.42 422.445 212.79 420.266 216.07C418.461 218.789 416.915 221.887 414.477 224.111C414.214 224.351 413.767 224.931 413.542 224.593" fill="none" opacity="1" stroke="#000000" stroke-linecap="round" stroke-linejoin="round" stroke-width="7.95496"/>
<text fill="#aa0168" filter="url(#Filter)" font-family="Rockwell-Bold" font-size="30" stroke="none" text-anchor="start" transform="matrix(1 0 0 1 127.451 47.2575)" x="0" y="0">
<tspan font-weight="bold" text-decoration="underline" textLength="344.443" x="0" y="20">Home Studio : schéma</tspan>
</text>
</g>
</svg>
